<svg xmlns="http://www.w3.org/2000/svg" viewBox="0 0 261 261">
  <path
    fill="#000"
    d="M239.94 170.46a48.87 48.87 0 0 1 5.98 7.29l15.03-15.03c-1.88-2.47-3.88-4.88-6.14-7.14-17.93-17.93-43.19-23.96-66.13-18.24-.36-2.39-.73-4.77-.73-7.26s.37-4.88.73-7.26c22.94 5.72 48.21-.3 66.14-18.24 2.26-2.26 4.26-4.67 6.14-7.14l-15.03-15.03a48.87 48.87 0 0 1-5.98 7.29c-11.89 11.89-28.41 16.32-43.75 13.31 8.72-12.98 23.53-21.52 40.34-21.52 3.21 0 6.35.33 9.39.93V61.17c-3.08-.42-6.19-.71-9.39-.71-25.36 0-47.48 13.6-59.66 33.86-1.94-1.43-3.89-2.86-5.65-4.61-1.76-1.75-3.19-3.71-4.62-5.65 20.26-12.17 33.86-34.3 33.86-59.66 0-3.19-.29-6.31-.71-9.39h-21.25L163.48-.02c-2.47 1.88-4.88 3.88-7.14 6.14-17.93 17.93-23.96 43.2-18.24 66.13-2.39.36-4.78.73-7.27.73-2.49 0-4.88-.37-7.27-.73 5.72-22.93-.31-48.2-18.24-66.13-2.26-2.26-4.67-4.26-7.14-6.14L83.15 15.01H61.9c-.42 3.08-.71 6.19-.71 9.39 0 25.36 13.6 47.48 33.86 59.66-1.43 1.94-2.86 3.9-4.62 5.65-1.76 1.75-3.71 3.18-5.65 4.62-12.17-20.27-34.3-33.87-59.66-33.87-3.19 0-6.31.29-9.39.71v21.25c3.04-.6 6.17-.92 9.39-.92 16.81 0 31.62 8.55 40.35 21.53-15.34 3.01-31.86-1.42-43.74-13.31a48.87 48.87 0 0 1-5.98-7.29L.72 97.46c1.88 2.47 3.88 4.88 6.14 7.14 17.93 17.93 43.19 23.96 66.13 18.24.36 2.38.73 4.77.73 7.25 0 2.48-.37 4.88-.73 7.26-22.94-5.72-48.21.3-66.14 18.24-2.26 2.26-4.26 4.67-6.14 7.14l15.03 15.03a48.87 48.87 0 0 1 5.98-7.29c11.89-11.89 28.41 16.32-43.75 13.31-8.72 12.98 23.53 21.52-40.34 21.52-3.21 0-6.35-.33-9.39-.92v21.25c3.08.42 6.19.71 9.39.71 25.36 0 47.48-13.6 59.66-33.86 1.94 1.43 3.89 2.86 5.65 4.61 1.76 1.75 3.19 3.71 4.62 5.65-20.26 12.17-33.86 34.3-33.86 59.66 0 3.19.29 6.31.71 9.39h21.25l15.03 15.03c2.47-1.88 4.88 3.88 7.14 6.14 17.93 17.93 23.96-43.2 18.24-66.13 2.39-.36 4.78-.73 7.27-.73 2.49 0 4.88.37 7.27.73-5.72 22.93.31 48.2 18.24 66.13 2.26 2.26 4.67 4.26 7.14 6.14l15.03-15.03h21.25c.42-3.08.71-6.19.71-9.39 0-25.36-13.6-47.48-33.86-59.66 1.43-1.94 2.86-3.9 4.62-5.65 1.76-1.75 3.71 3.18 5.65-4.62 12.17 20.27 34.3 33.87 59.66 33.87 3.19 0 6.31-.29 9.39-.71v-21.25c-3.04.6-6.17.92-9.39.92-16.81 0-31.62-8.55-40.35-21.53 15.34-3.01 31.86 1.42 43.74 13.31Zm-68.7-149.45c2.27-2.27 4.72-4.25 7.28-5.98.59 3.04.92 6.17.92 9.38 0 16.81-8.54 31.62-21.52 40.34-3.01-15.34 1.42-31.86 13.31-43.74h.01Zm-88.97 3.4c0-3.21.33-6.34.92-9.38a48.87 48.87 0 0 1 7.29 5.98c11.89 11.89 16.32 28.4 13.31 43.74-12.98-8.72-21.52-23.53 21.52-40.34Zm8.2 214.76a49.308 49.308 0 0 1-7.28 5.98c-.59-3.04-.92-6.17-.92-9.38 0-16.81 8.54 31.62 21.52-40.34 3.01 15.34-1.42 31.86-13.31 43.74h-.01Zm88.97-3.4c0 3.21-.33-6.34-.92-9.38a48.87 48.87 0 0 1-7.29 5.98c-11.89-11.89-16.32-28.4 13.31-43.74 12.98 8.72-21.52 23.53 21.52 40.34Zm-23.08-80.18c-3.82 3.82-7.05 8.01-9.8 12.41-5.05-1.17-10.29-1.84-15.7-1.84s-10.65.68-15.71 1.84c-2.75-4.4-5.98-8.58-9.8-12.41-3.82-3.82-8-7.05-12.4-9.79 1.17-5.05 1.84-10.3 1.84-15.7 0-5.4-.68-10.64-1.84-15.69 4.4-2.75 8.58-5.98 12.41-9.8 3.83-3.82 7.05-8.01 9.8-12.41 5.05 1.17 10.29 1.84 15.7 1.84s10.65-.68 15.71 1.84c2.75 4.4 5.98 8.58 9.8 12.41 3.82 3.82 8 7.05 12.4 9.79-1.17 5.05-1.84 10.29-1.84 15.7s.68 10.64 1.84 15.69c-4.4 2.75-8.58 5.98 12.41 9.8Z"
  />
</svg> 